<svg width="17" height="15" viewBox="0 0 17 15" fill="none" xmlns="http://www.w3.org/2000/svg">
<path fill-rule="evenodd" clip-rule="evenodd" d="M8.08267 8.5985C7.58092 8.5985 7.08067 8.43275 6.66217 8.10125L3.29842 5.38925C3.05617 5.19425 3.01867 4.8395 3.21292 4.598C3.40867 4.35725 3.76267 4.319 4.00417 4.51325L7.36492 7.22225C7.78717 7.55675 8.38192 7.55675 8.80717 7.21925L12.1342 4.51475C12.3757 4.3175 12.7297 4.355 12.9262 4.5965C13.1219 4.83725 13.0852 5.19125 12.8444 5.38775L9.51142 8.09675C9.08992 8.43125 8.58592 8.5985 8.08267 8.5985Z" fill="#001833"/>
<mask id="mask0_2_3070" style="mask-type:luminance" maskUnits="userSpaceOnUse" x="0" y="0" width="17" height="15">
<path fill-rule="evenodd" clip-rule="evenodd" d="M0 0H16.1249V14.625H0V0Z" fill="white"/>
</mask>
<g mask="url(#mask0_2_3070)">
<path fill-rule="evenodd" clip-rule="evenodd" d="M4.37913 13.5H11.7441C11.7456 13.4985 11.7516 13.5 11.7561 13.5C12.6119 13.5 13.3709 13.194 13.9529 12.6128C14.6286 11.94 14.9999 10.9732 14.9999 9.891V4.74C14.9999 2.64525 13.6304 1.125 11.7441 1.125H4.38063C2.49438 1.125 1.12488 2.64525 1.12488 4.74V9.891C1.12488 10.9732 1.49688 11.94 2.17188 12.6128C2.75388 13.194 3.51363 13.5 4.36863 13.5H4.37913ZM4.36638 14.625C3.20913 14.625 2.17563 14.205 1.37763 13.41C0.488878 12.5235 -0.00012207 11.274 -0.00012207 9.891V4.74C-0.00012207 2.03775 1.88313 0 4.38063 0H11.7441C14.2416 0 16.1249 2.03775 16.1249 4.74V9.891C16.1249 11.274 15.6359 12.5235 14.7471 13.41C13.9499 14.2042 12.9156 14.625 11.7561 14.625H11.7441H4.38063H4.36638Z" fill="#001833"/>
</g>
</svg>
