<svg width="18" height="15" viewBox="0 0 18 15" fill="none" xmlns="http://www.w3.org/2000/svg">
<path fill-rule="evenodd" clip-rule="evenodd" d="M8.99922 5.07691C7.80222 5.07691 6.82931 6.05072 6.82931 7.24773C6.82931 8.44383 7.80222 9.41674 8.99922 9.41674C10.1962 9.41674 11.17 8.44383 11.17 7.24773C11.17 6.05072 10.1962 5.07691 8.99922 5.07691ZM8.9993 10.7668C7.05798 10.7668 5.47937 9.18823 5.47937 7.24782C5.47937 5.3065 7.05798 3.72699 8.9993 3.72699C10.9406 3.72699 12.5201 5.3065 12.5201 7.24782C12.5201 9.18823 10.9406 10.7668 8.9993 10.7668Z" fill="#001833"/>
<mask id="mask0_2_3091" style="mask-type:luminance" maskUnits="userSpaceOnUse" x="0" y="0" width="18" height="15">
<path fill-rule="evenodd" clip-rule="evenodd" d="M0 0H18V14.4946H0V0Z" fill="white"/>
</mask>
<g mask="url(#mask0_2_3091)">
<path fill-rule="evenodd" clip-rule="evenodd" d="M1.41274 7.24698C3.08675 10.9451 5.90647 13.1438 8.99979 13.1447C12.0931 13.1438 14.9128 10.9451 16.5869 7.24698C14.9128 3.54975 12.0931 1.35103 8.99979 1.35013C5.90737 1.35103 3.08675 3.54975 1.41274 7.24698ZM9.00164 14.4949H8.99804H8.99714C5.27471 14.4922 1.93209 11.8831 0.0546754 7.51357C-0.0182251 7.34346 -0.0182251 7.15086 0.0546754 6.98076C1.93209 2.61213 5.27561 0.00300881 8.99714 0.000308794C8.99894 -0.000591213 8.99894 -0.000591213 8.99984 0.000308794C9.00164 -0.000591213 9.00164 -0.000591213 9.00254 0.000308794C12.725 0.00300881 16.0676 2.61213 17.945 6.98076C18.0188 7.15086 18.0188 7.34346 17.945 7.51357C16.0685 11.8831 12.725 14.4922 9.00254 14.4949H9.00164Z" fill="#001833"/>
</g>
</svg>
